<svg xmlns="http://www.w3.org/2000/svg" viewBox="0 0 64 64"><style>.z{fill:#e1e1e1;mix-blend-mode:multiply}</style><path fill="#0a9fcc" d="M0 0h64v64H0z"/><path id="a" d="M0 0v16h1v-2h1v-2h1v-1h1v-1h1V8h1V7h1V6h1V5h1V4h1V3h2V2h1V1h2V0z" class="z"/><use x="-64" class="z" href="#a" transform="scale(-1 1)"/><use x="-64" y="-64" class="z" href="#a" transform="scale(-1)"/><use y="-64" class="z" href="#a" transform="scale(1 -1)"/><path d="M22 44h20v1h1v1h1v1h1v1h1v1h1v2h1v3h-1v1H17v-1h-1v-3h1v-2h1v-1h1v-1h1v-1h1v-1h1z"/><path fill="#09cd20" d="M22 45h20v1h1v1h1v1h1v1h1v2h1v3H17v-3h1v-2h1v-1h1v-1h1v-1h1v-1h1z"/><path d="M32 45h1v9h-1z"/><path id="b" d="M30 49h1v1h-1zm0 2h1v1h-1z"/><use x="1" class="z" href="#b"/><path d="M39 45h3v1h1v1h1v1h1v1h1v2h1v3h-3v-3h-1v-1h-1v-1h-1v-1h-1v-1h-1z" class="z"/><path d="M26 10h12v1h4v1h3v1h2v1h1v1h1v1h1v1h1v4h-1v1h-1v1h-1v1h-1v1H17v-1h-1v-1h-1v-1h-1v-1h-1v-4h1v-1h1v-1h1v-1h1v-1h2v-1h3v-1h4z"/><path fill="#09cd20" d="M26 11h12v1h4v1h3v1h2v1h1v1h1v1h1v4h-1v1h-1v1h-1v1H17v-1h-1v-1h-1v-1h-1v-4h1v-1h1v-1h1v-1h2v-1h3v-1h4z"/><path d="M25 16h14v1h4v1h2v2h-2v1h-4v1H25v-1h-4v-1h-2v-2h2v-1h4z"/><path d="M39 12h3v1h3v1h2v1h1v1h1v1h1v4h-1v1h-1v1h-1v1H34v-9h1v-1h3v-1h1z" class="z"/><path d="M29 8h6v1h2v1H27V9h2z"/><path fill="#09cd20" d="M29 9h6v1h-6z"/><path d="M28 16h8v1h3v1h1v1h2v1h1v1h1v1h1v2h1v1h1v3h1v8h-1v3h-1v1h-1v2h-1v1h-1v1h-1v1h-2v1h-1v1h-3v1h-8v-1h-3v-1h-1v-1h-2v-1h-1v-1h-1v-1h-1v-2h-1v-1h-1v-3h-1v-8h1v-3h1v-1h1v-2h1v-1h1v-1h1v-1h2v-1h1v-1h3z"/><path fill="#fff" d="M28 17h8v1h3v1h1v1h2v1h1v1h1v2h1v1h1v3h1v8h-1v3h-1v1h-1v2h-1v1h-1v1h-2v1h-1v1h-3v1h-8v-1h-3v-1h-1v-1h-2v-1h-1v-1h-1v-2h-1v-1h-1v-3h-1v-8h1v-3h1v-1h1v-2h1v-1h1v-1h2v-1h1v-1h3z"/><path id="c" d="M25 26h3v1h1v2h-1v-2h-3v2h-1v-2h1z"/><use x="11" href="#c"/><path d="M43 22h1v2h1v1h1v3h1v8h-1v3h-1v1h-1v2h-1v1h-1v1h-2v1h-1v1h-3v1h-8v-1h-3v-1h-1v-1h-2v-1h4v-1h7v-1h2v-1h1v-1h1v-1h1v-1h1v-1h1v-2h1v-2h1v-3h1z" class="z"/></svg>
