<svg xmlns="http://www.w3.org/2000/svg" width="512" height="512" viewBox="0 0 135.467 135.467"><defs/><g transform="translate(0 -280.067)"><rect width="135.467" height="135.467" y="280.067" fill="#1f1f1f" ry="0"/><path fill="#fff" d="M18.525 342.906v-.525h.44q.949 0 1.169-.152.22-.152.22-.644v-8.923q0-.491-.22-.644-.22-.152-1.168-.152h-.44v-.525q.592.05 2.59.05 1.981 0 2.574-.05v.525h-.44q-.949 0-1.169.152-.22.153-.22.644v8.923q0 .492.22.644.22.152 1.169.152h.44v.525q-.593-.05-2.59-.05-1.982 0-2.575.05zm6.198-.22v-2.489q.017-.068.068-.119.05-.05.152-.05.119 0 .152.05.051.051.085.237.254 1.169.796 1.795.559.61 1.558.61.948 0 1.422-.423.491-.424.491-1.118 0-1.236-1.76-1.558-1.017-.203-1.44-.338-.423-.136-.796-.44-.728-.593-.728-1.44t.643-1.456q.644-.627 2.066-.627.948 0 1.592.474.186-.152.288-.27.22-.204.338-.204.136 0 .153.085.034.085.034.322v1.71q0 .186-.017.254 0 .068-.051.118-.05.034-.152.034-.187 0-.204-.152-.135-2.05-1.98-2.05-1 0-1.457.39-.44.373-.44.898 0 .288.135.508.136.22.305.355.186.119.508.238.339.118.542.169.203.034.592.118 1.355.254 1.93.813.712.711.712 1.609 0 .999-.677 1.676-.678.678-2.05.678-1.1 0-1.862-.729l-.186.187q-.068.084-.102.118-.017.034-.034.051 0 .017-.017.034-.338.339-.423.339-.135 0-.17-.085-.016-.085-.016-.322zm12.073-6.553v-.373q.78-.033 1.287-.575.525-.56.694-1.236.187-.678.204-1.457h.423v3.116h2.421v.525h-2.421v4.707q0 1.83 1.135 1.83.49 0 .812-.492.322-.508.322-1.405v-.932h.423v.966q0 .914-.423 1.608-.423.678-1.253.678-.305 0-.61-.085-.304-.068-.694-.271-.39-.203-.643-.694-.237-.508-.237-1.237v-4.673zm6.791 6.773v-.525q.897 0 1.1-.101.22-.119.22-.66v-8.806q0-.627-.22-.779-.22-.17-1.1-.17v-.524l2.438-.186v5.892h.017q.27-.61.88-1.117.61-.508 1.558-.508 1.27 0 1.778.626.373.424.44.898.085.474.085 1.693v3.234q.017.356.288.44.271.068 1.033.068v.525q-1.727-.05-1.897-.05-.135 0-1.913.05v-.525q.897 0 1.1-.101.22-.119.22-.66v-3.946q0-.864-.27-1.372-.254-.508-.982-.508-.88 0-1.592.745-.694.728-.694 1.965v3.115q0 .542.203.66.22.102 1.118.102v.525q-1.728-.05-1.897-.05-.135 0-1.913.05zm9.414 0v-.525q.898 0 1.101-.101.22-.119.22-.66v-4.556q0-.626-.22-.779-.203-.152-1.033-.152v-.525l2.37-.186v6.214q0 .508.17.627.186.118 1.016.118v.525l-1.76-.05q-.238 0-1.864.05zm.712-10.43q0-.34.254-.61.27-.288.643-.288t.627.254q.27.254.27.643 0 .39-.27.644-.254.254-.627.254-.39 0-.643-.271-.254-.271-.254-.627zm3.979 10.21v-2.489q.017-.068.068-.119.05-.05.152-.05.119 0 .152.05.051.051.085.237.254 1.169.796 1.795.559.61 1.558.61.948 0 1.422-.423.491-.424.491-1.118 0-1.236-1.76-1.558-1.017-.203-1.44-.338-.423-.136-.796-.44-.728-.593-.728-1.44t.643-1.456q.644-.627 2.066-.627.948 0 1.592.474.186-.152.288-.27.22-.204.338-.204.136 0 .153.085.034.085.034.322v1.71q0 .186-.017.254 0 .068-.051.118-.05.034-.152.034-.187 0-.204-.152-.135-2.05-1.98-2.05-1 0-1.457.39-.44.373-.44.898 0 .288.135.508.136.22.305.355.186.119.508.238.339.118.542.169.203.034.593.118 1.354.254 1.93.813.711.711.711 1.609 0 .999-.677 1.676-.678.678-2.05.678-1.1 0-1.862-.729l-.186.187q-.068.084-.102.118-.017.034-.034.051 0 .017-.016.034-.34.339-.424.339-.135 0-.17-.085-.016-.085-.016-.322zm12.073-10.82v-.525q1.83.05 2.15.05 1.813 0 2.422-.05v.525q-1.388 0-1.388.49 0 .069.101.306l3.235 8.55 3.098-8.16q.085-.255.085-.34 0-.338-.322-.575-.304-.254-.914-.271v-.525q1.32.05 1.93.05.864 0 1.643-.05v.525q-1.423.017-1.846 1.134l-3.776 9.957q-.068.203-.135.254-.068.068-.271.068-.17 0-.254-.068-.085-.068-.17-.305l-3.928-10.397q-.17-.457-.474-.542-.288-.101-1.186-.101zm11.447 7.314q0-1.59 1.016-2.725 1.033-1.135 2.506-1.135 1.49 0 2.252.965.78.966.78 2.354 0 .254-.068.305-.068.05-.356.05h-4.724q0 1.728.508 2.54.71 1.135 1.913 1.135.17 0 .356-.034.203-.034.61-.17.406-.151.761-.54.356-.39.56-1 .05-.237.22-.237.22 0 .22.203 0 .153-.17.491-.152.322-.457.728-.305.39-.898.695-.592.287-1.303.287-1.49 0-2.608-1.117-1.118-1.135-1.118-2.794zm1.423-.54h4.013q0-.357-.068-.746-.05-.406-.237-.948-.17-.56-.593-.898-.406-.355-1.016-.355-.27 0-.575.118-.288.119-.644.407-.355.27-.61.914-.237.627-.27 1.507zm7.264 3.335q-1.067-1.118-1.067-2.726 0-1.609 1.05-2.76 1.067-1.169 2.625-1.169 1.033 0 1.812.491.778.491.778 1.321 0 .373-.22.593-.22.203-.558.203-.356 0-.576-.22-.203-.22-.203-.56 0-.151.05-.287.051-.152.237-.305.187-.17.508-.186-.61-.627-1.811-.627-.864 0-1.575.813t-.711 2.659q0 .965.237 1.676t.626 1.084q.39.356.762.525.39.17.762.17 1.66 0 2.218-1.779.051-.17.22-.17.22 0 .22.17 0 .085-.067.305-.068.203-.27.542-.204.339-.509.643-.288.288-.813.508-.508.204-1.151.204-1.49 0-2.574-1.118zm6.197-5.842v-.373q.78-.033 1.287-.575.525-.56.695-1.236.186-.678.203-1.457h.423v3.116h2.422v.525h-2.422v4.707q0 1.83 1.135 1.83.49 0 .813-.492.321-.508.321-1.405v-.932h.424v.966q0 .914-.424 1.608-.423.678-1.253.678-.305 0-.61-.085-.304-.068-.694-.271-.39-.203-.643-.694-.237-.508-.237-1.237v-4.673zm7.841 5.859q-1.118-1.1-1.118-2.71 0-1.608 1.084-2.777 1.1-1.185 2.675-1.185 1.541 0 2.642 1.169 1.1 1.168 1.1 2.794 0 1.591-1.117 2.709-1.1 1.1-2.642 1.1-1.507 0-2.624-1.1zm.287-2.845q0 1.643.424 2.388.66 1.134 1.93 1.134.627 0 1.152-.338.525-.34.812-.915.373-.745.373-2.269 0-1.626-.44-2.354-.66-1.1-1.914-1.1-.542 0-1.083.288-.525.287-.847.846-.407.745-.407 2.32zm7.062 3.759v-.525q.897 0 1.1-.101.22-.119.22-.66v-4.539q0-.626-.22-.779-.22-.17-1.1-.17v-.524l2.353-.186v1.862q.237-.728.745-1.287.508-.575 1.338-.575.542 0 .898.305.355.304.355.728 0 .372-.237.558-.22.187-.491.187-.305 0-.525-.187-.203-.203-.203-.541 0-.204.085-.356.101-.17.169-.22.085-.068.135-.085-.033-.017-.186-.017-.931 0-1.473.932-.525.93-.525 2.252v2.607q0 .492.203.644.203.152 1.084.152h.356v.525q-.678-.05-2.151-.05-.203 0-.525.016-.322 0-.745.017t-.66.017zM9.864 358.332q0-2.59 1.66-4.385 1.659-1.812 3.962-1.812 2.32 0 3.98 1.812 1.659 1.812 1.659 4.385 0 2.557-1.66 4.335t-3.98 1.778q-2.285 0-3.962-1.76-1.659-1.779-1.659-4.353zm1.744-.237q0 1.575.373 2.777.372 1.203.965 1.863.61.644 1.253.965.643.305 1.304.305.643 0 1.27-.305.643-.304 1.236-.948.61-.643.982-1.846.39-1.219.39-2.81 0-1.237-.271-2.236-.254-.999-.678-1.592-.406-.61-.948-.999-.525-.406-1.033-.558-.491-.153-.965-.153-.593 0-1.22.271-.609.254-1.235.847-.627.576-1.033 1.727-.39 1.135-.39 2.692zm10.939 5.978v-.525q.897 0 1.1-.102.22-.118.22-.66v-4.538q0-.627-.22-.78-.22-.168-1.1-.168v-.525l2.354-.187v1.863q.237-.728.745-1.287.508-.576 1.338-.576.541 0 .897.305t.356.728q0 .373-.237.56-.22.185-.492.185-.304 0-.524-.186-.204-.203-.204-.542 0-.203.085-.355.102-.17.17-.22.084-.068.135-.085-.034-.017-.186-.017-.932 0-1.474.931-.525.932-.525 2.252v2.608q0 .491.204.644.203.152 1.083.152h.356v.525q-.677-.05-2.15-.05-.204 0-.526.016-.321 0-.745.017-.423.017-.66.017zm12.497-1.609q0-1.44 1.693-2.201 1.016-.491 3.116-.61v-.626q0-1.05-.559-1.609-.542-.559-1.236-.559-1.236 0-1.829.78.508.016.677.27.187.254.187.508 0 .339-.22.559-.204.22-.56.22-.338 0-.558-.203-.22-.22-.22-.593 0-.83.745-1.371.745-.542 1.812-.542 1.388 0 2.32.931.287.288.423.66.152.373.17.627.016.237.016.711v3.387q0 .101.034.27.034.153.186.373.153.204.407.204.61 0 .61-1.084v-.948h.423v.948q0 .897-.474 1.253-.475.355-.915.355-.559 0-.914-.406-.356-.423-.407-.982-.254.643-.846 1.067-.576.406-1.372.406-.61 0-1.185-.152-.576-.153-1.05-.576-.474-.423-.474-1.067zm1.304-.017q0 .627.44 1.033.457.407 1.084.407.71 0 1.337-.542.644-.559.644-1.643v-1.693q-1.88.068-2.693.813-.812.745-.812 1.625zm12.649-5.147v-.525h1.337v-1.948q0-1.253.813-1.964.813-.728 1.812-.728.66 0 1.084.355.44.356.44.83 0 .322-.203.542-.186.203-.542.203-.339 0-.542-.203-.186-.22-.186-.525 0-.542.508-.711-.254-.119-.559-.119-.61 0-1.084.627-.474.626-.474 1.676v1.965h1.981v.525h-1.93v5.452q0 .491.203.644.203.152 1.084.152h.356v.525q-.678-.05-2.151-.05-.203 0-.525.016-.322 0-.745.017t-.66.017v-.525q.897 0 1.1-.102.22-.118.22-.66v-5.487zm5.317 5.164q0-1.44 1.693-2.201 1.016-.491 3.116-.61v-.626q0-1.05-.559-1.609-.542-.559-1.236-.559-1.236 0-1.829.78.508.016.677.27.187.254.187.508 0 .339-.22.559-.204.22-.56.22-.338 0-.558-.203-.22-.22-.22-.593 0-.83.745-1.371.745-.542 1.812-.542 1.388 0 2.32.931.287.288.423.66.152.373.17.627.016.237.016.711v3.387q0 .101.034.27.034.153.186.373.153.204.407.204.61 0 .61-1.084v-.948h.423v.948q0 .897-.474 1.253-.475.355-.915.355-.559 0-.914-.406-.356-.423-.407-.982-.254.643-.846 1.067-.576.406-1.372.406-.61 0-1.185-.152-.576-.153-1.05-.576-.474-.423-.474-1.067zm1.304-.017q0 .627.44 1.033.457.407 1.084.407.71 0 1.337-.542.644-.559.644-1.643v-1.693q-1.88.068-2.693.813-.812.745-.812 1.625zm6.925 1.626v-.525q.898 0 1.101-.102.22-.118.22-.66v-8.805q0-.627-.22-.78-.22-.169-1.1-.169v-.525l2.438-.186v8.128l2.387-2.066q.373-.321.373-.66 0-.39-.491-.423v-.525q.71.05 1.896.05.695 0 1.186-.05v.525q-1.067.05-2.134.914-.237.186-.813.677-.559.491-.559.542 0 .017.017.068.017.034.051.068.034.033.034.05l2.15 3.031q.44.61.763.762.321.136.88.136v.525q-.728-.051-1.473-.051-.407 0-1.829.05v-.524q.61 0 .61-.39 0-.27-1.372-2.167-.102-.136-.322-.423-.203-.305-.321-.458l-1.084.932v1.744q0 .542.203.66.22.102 1.118.102v.525q-1.016-.051-1.863-.051-.17 0-1.846.05zm8.45-3.725q0-1.592 1.016-2.727 1.033-1.134 2.506-1.134 1.49 0 2.252.965.78.965.78 2.354 0 .254-.069.304-.067.051-.355.051h-4.725q0 1.727.508 2.54.712 1.135 1.914 1.135.17 0 .355-.034.204-.034.61-.17.406-.152.762-.541.356-.39.559-1 .05-.236.22-.236.22 0 .22.203 0 .152-.17.49-.152.323-.456.729-.305.39-.898.694-.593.288-1.304.288-1.49 0-2.607-1.117-1.118-1.135-1.118-2.794zm1.422-.542h4.014q0-.356-.068-.745-.051-.407-.237-.949-.17-.558-.593-.897-.406-.356-1.016-.356-.27 0-.576.119-.288.118-.643.406-.356.271-.61.915-.237.626-.27 1.507zm12.209 4.233v-3.641q.017-.067.068-.118.05-.051.152-.051.187 0 .204.17.05 1.676 1.05 2.607.982.914 2.675.914 1.016 0 1.642-.728.627-.728.627-1.693 0-.914-.525-1.558-.22-.288-.508-.474-.27-.186-.44-.237-.17-.068-.491-.152-2.1-.508-2.236-.56-.999-.338-1.608-1.185-.61-.863-.61-1.913 0-1.355.948-2.32.966-.965 2.354-.965.694 0 1.27.22.593.22.83.423.237.187.61.542l.592-.965q.136-.22.254-.22.136 0 .153.085.033.067.033.321v3.404q0 .186-.016.254 0 .068-.051.118-.051.034-.153.034-.169 0-.203-.203-.474-3.539-3.302-3.539-.965 0-1.609.66-.626.644-.626 1.558 0 .745.457 1.355.474.61 1.253.796l2.168.525q1.083.254 1.812 1.219.728.948.728 2.201 0 1.44-.949 2.49-.93 1.032-2.387 1.032-1.05 0-1.863-.355-.813-.339-1.253-.83-.339.559-.559.88l-.05.085q-.136.22-.255.22-.135 0-.169-.084-.017-.085-.017-.322zm8.772-11.007v-.525q1.828.051 2.15.051 1.812 0 2.422-.05v.524q-1.389 0-1.389.491 0 .068.102.305l3.234 8.552 3.099-8.162q.084-.254.084-.339 0-.339-.321-.576-.305-.254-.915-.27v-.526q1.321.051 1.93.051.864 0 1.643-.05v.524q-1.422.017-1.845 1.135l-3.777 9.957q-.067.203-.135.254-.068.067-.271.067-.17 0-.254-.067-.085-.068-.17-.305l-3.928-10.397q-.17-.457-.474-.542-.288-.102-1.185-.102zm14.596 9.618q-1.744-1.794-1.744-4.368 0-2.574 1.744-4.352 1.761-1.795 4.149-1.795.592 0 1.1.135.508.136.915.407.406.27.61.457.22.17.507.457l.847-1.253q.136-.203.271-.203t.152.085q.034.067.034.321v4.014q0 .27-.034.338t-.237.068q-.169 0-.203-.05-.034-.052-.068-.238-.254-1.829-1.287-2.912-1.016-1.101-2.404-1.101-.406 0-.864.101-.44.085-1.1.44-.66.34-1.169.915-.49.559-.863 1.643-.356 1.083-.356 2.523 0 1.422.356 2.523.372 1.083.88 1.66.508.558 1.169.914.677.355 1.151.457.474.085.898.085.287 0 .626-.051.339-.068.847-.254.508-.187.83-.627.321-.457.321-1.117v-1.084q0-.508-.254-.66-.237-.153-1.32-.153h-.542v-.525q.61.05 2.726.05.186 0 2.066-.05v.525q-.813 0-1 .119-.169.118-.169.626v2.947q0 .389-.152.389-.136 0-.525-.373-.39-.389-.559-.677-.406.711-1.287 1.067-.88.372-1.88.372-2.438 0-4.182-1.794zm11.532-8.263q0-.88.779-1.558.795-.694 2.1-.694 1.71 0 2.455.694.745.694.745 1.592 0 1.05-.813 1.66-2.235 1.659-2.235 3.775v.593q0 .186-.017.271 0 .068-.051.136-.05.05-.152.05-.136 0-.17-.067-.034-.085-.034-.339v-.762q0-.897.356-1.93t1.134-1.88q.187-.186.288-.322.102-.152.187-.474.101-.339.101-.813 0-.288-.017-.457 0-.17-.101-.457-.102-.288-.288-.457-.17-.17-.542-.305-.373-.136-.898-.136-1.54 0-2.218 1.152.948 0 .948.762 0 .339-.22.559-.203.22-.558.22-.322 0-.56-.203-.22-.204-.22-.61zm2.167 9.432q-.254-.271-.254-.644 0-.372.254-.626.271-.271.644-.271.372 0 .626.27.271.255.271.627 0 .373-.27.644-.255.254-.627.254-.373 0-.644-.254z" aria-label="Is this Vector Or a fake SVG?" font-family="CMU Serif" font-size="16.933" letter-spacing="0" text-anchor="middle" word-spacing="0"/><path fill="#fff" d="M67.733 392.404v-.052h.044q.095 0 .117-.016.022-.015.022-.064v-.892q0-.05-.022-.065t-.117-.015h-.044v-.052q.06.005.26.005.198 0 .257-.005v.052h-.044q-.095 0-.117.015-.022.015-.022.065v.892q0 .049.022.064t.117.015h.044v.053q-.06-.005-.26-.005-.197 0-.257.005zm.597-.677v-.038q.077-.003.128-.057.053-.056.07-.124.018-.067.02-.145h.042v.311h.242v.053h-.242v.47q0 .183.114.183.049 0 .08-.049.033-.05.033-.14v-.093h.042v.096q0 .091-.042.16t-.125.069q-.03 0-.061-.008-.03-.007-.07-.027-.039-.02-.064-.07-.024-.05-.024-.123v-.468zm.78-.447q0-.043.025-.06.026-.018.053-.018.034 0 .056.02t.022.058q0 .017-.002.025l-.056.511h-.039l-.057-.51q-.002-.009-.002-.026zm.37 1.102v-.249q.003-.007.008-.012t.015-.005q.012 0 .015.005.005.005.009.024.025.117.08.18.055.06.155.06.095 0 .142-.042.05-.042.05-.112 0-.123-.177-.155-.101-.02-.144-.034-.042-.014-.08-.044-.072-.06-.072-.144 0-.085.064-.146.065-.063.207-.063.095 0 .159.048.019-.015.029-.027.022-.02.034-.02.013 0 .015.007.003.008.003.033v.17l-.001.026q0 .007-.005.012-.006.003-.016.003-.018 0-.02-.015-.014-.205-.198-.205-.1 0-.146.039-.044.037-.044.09 0 .028.014.05.013.022.03.036.019.012.051.023.034.012.054.017l.06.012q.135.026.193.081.07.072.07.161 0 .1-.067.168-.068.068-.205.068-.11 0-.186-.073l-.019.018-.01.012-.003.005q0 .002-.002.003-.034.034-.042.034-.014 0-.017-.008-.002-.008-.002-.032zm1.247-.139q0-.144.17-.22.101-.05.311-.061v-.063q0-.105-.056-.16-.054-.056-.123-.056-.124 0-.183.078.05.002.067.027.019.025.019.05 0 .034-.022.056-.02.022-.056.022-.034 0-.056-.02-.022-.022-.022-.06 0-.082.075-.136.074-.055.18-.055.14 0 .233.094.029.028.042.066.015.037.017.062.002.024.002.071v.339q0 .01.003.027.004.015.019.037.015.02.04.02.062 0 .062-.108v-.094h.042v.094q0 .09-.048.126-.047.035-.091.035-.056 0-.091-.04-.036-.043-.041-.099-.025.065-.085.107-.057.04-.137.04-.06 0-.118-.015-.058-.015-.105-.057-.048-.042-.048-.107zm.13-.002q0 .063.045.103.045.041.108.041.071 0 .134-.054.064-.056.064-.164v-.17q-.188.007-.27.082-.08.074-.08.162zm1.242-.941v-.052l.215.005q.181 0 .242-.005v.052q-.139 0-.139.05 0 .006.01.03l.324.855.31-.816q.008-.026.008-.034 0-.034-.032-.058-.03-.025-.092-.027v-.053q.133.005.193.005.087 0 .165-.005v.053q-.143.002-.185.113l-.377.996q-.007.02-.014.026-.007.007-.027.007-.017 0-.026-.007-.008-.007-.016-.031l-.393-1.04q-.017-.045-.048-.054-.029-.01-.118-.01zm1.144.732q0-.16.102-.273.103-.114.25-.114.15 0 .226.097.078.096.078.235 0 .026-.007.03-.007.006-.036.006h-.472q0 .173.05.254.072.113.192.113.017 0 .036-.003.02-.003.06-.017.041-.015.077-.054.035-.039.056-.1.005-.023.022-.023.022 0 .022.02 0 .015-.017.049-.015.032-.046.073-.03.039-.09.07-.059.028-.13.028-.15 0-.26-.112-.113-.113-.113-.28zm.143-.055h.401q0-.035-.007-.074-.005-.04-.024-.095-.016-.056-.059-.09-.04-.035-.101-.035-.028 0-.058.012-.029.011-.064.04-.036.027-.061.092-.024.062-.027.15zm.726.333q-.107-.11-.107-.272 0-.16.105-.276.107-.117.263-.117.103 0 .181.05.078.049.078.132 0 .037-.022.059-.022.02-.056.02-.036 0-.058-.022-.02-.022-.02-.056 0-.015.005-.028.005-.016.024-.031.019-.017.05-.019-.06-.062-.18-.062-.087 0-.158.081-.071.081-.071.266 0 .096.024.168.023.07.062.108.04.035.077.052.038.017.076.017.166 0 .222-.178.005-.016.022-.016.022 0 .022.016 0 .008-.007.031-.007.02-.027.054t-.051.064q-.029.03-.081.051-.051.02-.116.02-.149 0-.257-.111zm.62-.583v-.038q.078-.003.129-.057.052-.056.069-.124.019-.067.02-.145h.043v.311h.242v.053h-.242v.47q0 .183.113.183.05 0 .081-.049.033-.05.033-.14v-.093h.042v.096q0 .091-.042.16-.043.069-.126.069-.03 0-.06-.008-.031-.007-.07-.027-.04-.02-.065-.07-.023-.05-.023-.123v-.468zm.784.586q-.112-.11-.112-.271 0-.161.108-.278.11-.119.268-.119.154 0 .264.117.11.117.11.28 0 .159-.112.27-.11.11-.264.11-.15 0-.262-.11zm.029-.285q0 .164.042.239.066.113.193.113.063 0 .115-.034.053-.033.081-.09.038-.075.038-.228 0-.162-.044-.235-.066-.11-.192-.11-.054 0-.108.029-.053.028-.085.084-.04.075-.04.232zm.705.376v-.052q.09 0 .11-.01.023-.013.023-.067v-.453q0-.063-.022-.078-.022-.017-.11-.017v-.053l.235-.018v.186q.024-.073.075-.129.05-.057.133-.057.055 0 .09.03.036.03.036.073 0 .037-.024.056-.022.018-.05.018-.03 0-.052-.018-.02-.02-.02-.054 0-.02.009-.036.01-.017.017-.022.008-.007.013-.008-.003-.002-.019-.002-.093 0-.147.093-.052.093-.052.225v.261q0 .05.02.064.02.016.108.016h.036v.052q-.068-.005-.215-.005l-.053.002-.074.002-.066.002zm.76-.09q0-.039.026-.064.028-.025.063-.025.036 0 .061.025.027.025.027.064 0 .038-.027.063t-.06.025q-.04 0-.065-.025-.026-.027-.026-.063zm0-1.034q0-.04.026-.065.028-.023.063-.023.036 0 .063.023.027.024.027.065l-.002.01v.008l-.064.748q-.004.04-.026.04-.018 0-.022-.046l-.064-.737-.002-.012v-.012z" aria-label="It's a Vector!" font-family="CMU Serif" font-size="1.693" letter-spacing="0" text-anchor="end" word-spacing="0"/></g></svg>
